<?xml version="1.0" standalone="no"?>
<!DOCTYPE svg PUBLIC "-//W3C//DTD SVG 1.1//EN" "http://www.w3.org/Graphics/SVG/1.1/DTD/svg11.dtd">
<svg xmlns="http://www.w3.org/2000/svg">
  <defs>
    <font id="Lexend" horiz-adv-x="548">
      <font-face font-family="Lexend" units-per-em="1000" panose-1="0 0 0 0 0 0 0 0 0 0" ascent="1000" descent="-250" alphabetic="0"/>
      <glyph unicode=" " glyph-name="gid168" horiz-adv-x="280"/>
      <glyph unicode="!" glyph-name="gid177" horiz-adv-x="236" d="M87,241q-7,63-12.5,130.5T66,505T63,630v70H171V630q0-62-3-130t-8.5-134.5T147,241H87ZM114-11Q81-11 63,8.5T45,64q0,33 19,54t50,21q33,0 51-19.5T183,64q0-33-19-54T114-11Z"/>
      <glyph unicode="&quot;" glyph-name="gid210" horiz-adv-x="412" d="M245,442l24,258H385L305,442H245ZM37,442L60,700H178L97,442H37Z"/>
      <glyph unicode="#" glyph-name="gid184" horiz-adv-x="678" d="M367,0L487,700h90L457,0H367ZM31,173v83H610V173H31ZM101,0L221,700h90L191,0H101ZM69,453v83H647V453H69Z"/>
      <glyph unicode="$" glyph-name="gid225" horiz-adv-x="624" d="M314-10q-86,0-151.5,34T50,126l74,85q49-70 94-97T325,87q38,0 69,12t49,33t18,48q0,18-6,34t-18.5,29t-32,24T359,286.5T299,301q-72,14-119.5,42t-71,71T85,514q0,42 18.5,78t51,62.5t76.5,41T326,710q81,0 141.5-31.5T563,587l-76-75q-30,49-71.5,75T323,613q-39,0-68-12t-45.5-33.5T193,517q0-21 8-38.5t24.5-31t44.5-24T337,405q55-12 98-30.5T508,331t45.5-56T569,208q0-67-31-116T450,16.5T314-10ZM254-91V363l97-33V-91H254ZM391,330l-97,33V782h97V330Z"/>
      <glyph unicode="%" glyph-name="gid242" horiz-adv-x="839" d="M129,0L592,700H695L227,0H129Zm64,329q-45,0-79.5,24.5t-54,67T40,518t19.5,98.5t54.5,68T194,709t79.5-24.5t54-68T347,518q0-53-20-96t-55-68t-79-25Zm1,75q21,0 36.5,14t24,39.5T263,518t-8.5,61t-24,40T193,633q-21,0-37-14.5t-24.5-40T123,518t8.5-60.5T156,418t38-14ZM636-9q-45,0-79.5,25T502,83.5T482,180q0,55 19.5,98.5t54.5,68T636,371t79.5-24.5t54-68T789,180q0-53-20-96T714.5,16T636-9Zm0,74q21,0 37,14.5t24.5,40T706,180t-8.5,60.5t-24.5,40T636,295q-22,0-38-14t-24.5-40T565,180t8.5-60.5t24.5-40T636,65Z"/>
      <glyph unicode="&amp;" glyph-name="gid213" horiz-adv-x="739" d="M575,0L484,97l-16,18L295,308q-25,28-48,57.5T206.5,424t-28,56.5T168,532q0,51 26.5,91.5t73,63.5T375,710q45,0 84-16.5t67.5-46T568,579l-78-50q-19,46-46.5,67T375,617q-31,0-52-9.5T291,580t-11-45q0-22 12.5-48.5T324,433t39-50t35-40L537,188l29-32L709,0H575ZM306-10q-71,0-129,30.5t-92.5,81T50,212q0,79 43.5,137T221,438l64-77q-64-14-95-46.5T159,227q0-42 20-74t57.5-50T326,85q45,0 82.5,17.5T476,152t49.5,77T554,329h92q-8-61-28.5-113t-51-94t-70-71.5T409,5.5T306-10Z"/>
      <glyph unicode="&apos;" glyph-name="gid211" horiz-adv-x="205" d="M37,442L60,700H178L97,442H37Z"/>
      <glyph unicode="(" glyph-name="gid194" horiz-adv-x="366" d="M290-186Q168-110 104,4T40,258q0,139 64.5,253.5T291,702l55-62Q244,569 190.5,470.5T137,258T190.5,45.5T346-124l-56-62Z"/>
      <glyph unicode=")" glyph-name="gid195" horiz-adv-x="366" d="M75-186L20-124Q122-53 175.5,45.5T229,258T175.5,470.5T20,640l56,62q122-76 186-190t64-254q0-139-64.5-253.5T75-186Z"/>
      <glyph unicode="*" glyph-name="gid183" horiz-adv-x="387" d="M159,376l8,115h5L69,421L32,486l112,54l-2-5L30,589l38,64l104-70l-5,2l-8,115h75l-9-127l-8,8l103,70l37-65L244,531v11l112-55l-37-64L215,493l11-2l8-115H159Z"/>
      <glyph unicode="+" glyph-name="gid230" horiz-adv-x="591" d="M45,235v90H546V235H45ZM242,42V525H347V42H242Z"/>
      <glyph unicode="," glyph-name="gid173" horiz-adv-x="267" d="M88-179L50-133q35,20 57,46t22,45q0,10-5,19.5T103,4Q83,23 77,36T71,64q0,24 17,38.5T132,117q25,0 45.5-14.5t32-40T221,4q0-30-10-58t-28-52t-42-43T88-179Z"/>
      <glyph unicode="-" glyph-name="gid189" horiz-adv-x="394" d="M53,235V337H341V235H53Z"/>
      <glyph unicode="." glyph-name="gid172" horiz-adv-x="228" d="M114-11Q81-11 63,8.5T45,64q0,33 19,54t50,21q33,0 51-19.5T183,64q0-33-19-54T114-11Z"/>
      <glyph unicode="/" glyph-name="gid185" horiz-adv-x="557" d="M18-132L430,700h99L118-132H18Z"/>
      <glyph unicode="0" glyph-name="gid130" horiz-adv-x="607" d="M303-10q-80,0-137.5,44T77,158.5T46,350T77,541.5T165.5,666T303,710t138-44t89-124.5T561,350T530,158.5T441,34T303-10Zm0,98q73,0 113,68.5T456,350T416,543.5T303,612T190,543.5T150,350t40-193.5T303,88Z"/>
      <glyph unicode="1" glyph-name="gid131" horiz-adv-x="500" d="M217,49V617l37-28L116,516L87,610L274,710h52V49H217ZM106,0V104H440V0H106Z"/>
      <glyph unicode="2" glyph-name="gid132" horiz-adv-x="548" d="M93,0L60,82L274,323q17,18 35.5,41.5T345,413t27.5,49.5T383,509q0,32-12.5,54.5t-36,34.5T278,610q-29,0-57-17t-51-48t-36-72L51,525q17,58 51.5,99.5t83,63.5T291,710q59,0 105-24.5t72-68T494,517q0-23-5-47t-16-49.5t-28-53T404.5,310T351,247L192,74l-20,30H516V0H93Z"/>
      <glyph unicode="3" glyph-name="gid133" horiz-adv-x="529" d="M251-10q-74,0-128.5,34T20,138l84,53q25-37 49.5-60.5T204,96t55-11q35,0 65,17.5T372,151t18,70t-14,66.5t-41,42T271,344q-17,0-35.5-3.5t-39.5-10T150,314l-30,79L336,631l21-31H59V700H460l20-40L251,406l-25,26q8,4 26.5,7.5T283,443q44,0 82.5-16.5t67-46t45-69T494,227q0-68-32.5-121.5T374,21T251-10Z"/>
      <glyph unicode="4" glyph-name="gid134" horiz-adv-x="620" d="M352,0V564l25-6L147,277l-4,12H578V190H76L30,280L373,700h83V0H352Z"/>
      <glyph unicode="5" glyph-name="gid135" horiz-adv-x="568" d="M257-7Q188-7 132,24.5T39,115l60,67q47-52 82-71t76-19t74,18t52.5,49T403,228q0,40-18.5,71.5t-49.5,50T265,368q-19,0-36-2.5T188,354t-63-28L68,403l41,297H487V600H177l21,19L165,397l-25,29q10,10 34,19.5t53.5,16T284,468q64,0 114.5-29.5t80-81.5T508,238q0-69-33-124.5t-90-88T257-7Z"/>
      <glyph unicode="6" glyph-name="gid136" horiz-adv-x="557" d="M283,0q-52,0-96.5,18.5T109.5,70t-51,78T40,247q0,27 7.5,60.5t23,73.5T108,465.5T159,558l91,154H355l4-10L249,517q-30-51-53.5-97T156,333.5T132,260L108,363q19,31 41,54.5T196.5,457T250,481t58,8q58,0 106.5-31.5t78-83.5T522,260q0-75-30.5-133.5T407,34T283,0Zm0,100q39,0 69.5,18.5t48,52T418,247q0,37-18,69.5T352,369t-67,20q-41,0-73-19t-50-51t-18-71q0-42 18-75.5t49-53T283,100Z"/>
      <glyph unicode="7" glyph-name="gid137" horiz-adv-x="542" d="M112,0L402,632l12-32H60V700H493l14-69L228,0H112Z"/>
      <glyph unicode="8" glyph-name="gid138" horiz-adv-x="579" d="M289-3Q224-3 170.5,24.5T85,98T53,200q0,31 8.5,58.5t26,50.5T130,351t58,34l-6-21q-26,10-46.5,24.5T100,422T77.5,463T70,509q0,53 29.5,96t79,69T289,700t110.5-26t79-69T508,509q0-24-7.5-46T479,423t-35.5-33T395,364l-3,17q30-12 54.5-31T489,307t27.5-51t9.5-56q0-57-32-103T408.5,24T289-3Zm0,100q37,0 66.5,14T402,149t17,55q0,33-17,58.5T355.5,303T289,318t-66-15t-46-40.5T160,204q0-30 17-54t46-38.5T289,97Zm0,317q32,0 57.5,12t40,32.5T401,506t-14.5,48t-40,33.5T289,600t-57.5-12.5t-40-33.5T177,506t14.5-47.5t40-32.5T289,414Z"/>
      <glyph unicode="9" glyph-name="gid139" horiz-adv-x="551" d="M228,0l-4,10L432,452l3-83q-18-30-39.5-53t-47-39.5t-52.5-25T241,243q-57,0-105,30T59,353T30,462q0,71 32,127.5T149.5,679T274,712q50,0 94-18t77-50.5t52-75T516,478q0-25-5-53.5t-16.5-64t-30.5-81T417,174L334,0H228Zm36,343q39,0 70,17.5t48.5,47T400,474q0,39-17,70.5T335.5,594T266,612q-36,0-64-17.5t-44.5-48T141,475q0-35 16.5-65T202,361.5T264,343Z"/>
      <glyph unicode=":" glyph-name="gid174" horiz-adv-x="228" d="M114-10Q81-10 63,9.5T45,65q0,33 19,54t50,21q33,0 51-19.5T183,65q0-33-19-54T114-10Zm0,395q-33,0-51,19.5T45,460q0,33 19,54t50,21q33,0 51-19.5T183,460q0-33-19-54t-50-21Z"/>
      <glyph unicode=";" glyph-name="gid175" horiz-adv-x="262" d="M83-179L45-133q35,20 57,46t22,45q0,10-5,19.5T98,4Q78,23 72,36T66,64q0,24 17,38.5T127,117q25,0 45.5-14.5t32-40T216,4q0-30-10-58t-28-52t-42-43T83-179Zm49,564q-33,0-51,19.5T63,460q0,33 19,54t50,21q33,0 51-19.5T201,460q0-33-19-54t-50-21Z"/>
      <glyph unicode="&lt;" glyph-name="gid236" horiz-adv-x="524" d="M411,4L50,211v81L411,499l48-75L100,218v67L459,79L411,4Z"/>
      <glyph unicode="=" glyph-name="gid234" horiz-adv-x="566" d="M50,331v90H516V331H50Zm0-189v89H516V142H50Z"/>
      <glyph unicode="&gt;" glyph-name="gid235" horiz-adv-x="524" d="M113,4L65,79L424,285V218L65,424l48,75L474,292V211L113,4Z"/>
      <glyph unicode="?" glyph-name="gid179" horiz-adv-x="511" d="M193,211L167,352q39,10 70,22.5t53.5,27T328,433t22.5,36.5T358,511q0,29-15.5,52T300,599t-61,13q-40,0-77.5-27.5T97,507L22,570q43,66 102.5,102.5T249,709q63,0 113-26t79.5-71T471,511q0-33-13.5-64.5T419,387t-58.5-50T287,301l-17-90H193ZM158,64q0,33 19,54t50,21q33,0 51-19.5T296,64q0-33-19-54T227-11q-33,0-51,19.5T158,64Z"/>
      <glyph unicode="@" glyph-name="gid212" horiz-adv-x="965" d="M414-162q-87,0-156.5,26.5t-118,75T65.5,56T40,206q0,117 41.5,210.5t115,159t171,100T576,710q80,0 144-22.5T830,623t70.5-99.5T925,396q0-68-19.5-129.5T851,157.5t-81.5-75T669,55q-35,0-61.5,12.5T566,102t-15,53q0,15 3.5,32t5.5,35l14-20q-15-47-40.5-80T474,72T400,55q-43,0-76.5,23T271,142t-19,95q0,47 17,95t49,88t76,65t97,25q31,0 55.5-15t40-42T605,390l-24-59l26,170H708L657,193q-3-19 2.5-31.5T676,143t24-6q30,0 56,20t45,55.5T831,294t11,97q0,75-32,128.5t-92.5,82T572,630q-102,0-185-28.5t-141.5-83T155.5,386T124,209q0-69 19.5-122.5T200-5t92-57.5T417-82q47,0 81,6.5t65,20T632-22l37-67q-59-30-101-45.5T490-156t-76-6Zm9,302q34,0 65.5,21.5t54,55T570,286q3,18 5,31t2,25q0,26-10,44.5T538.5,415T495,425q-39,0-71-28.5t-51-73T354,232q0-43 18.5-67.5T423,140Z"/>
      <glyph unicode="A" glyph-name="gid1" horiz-adv-x="700" d="M25,0L296,700H406L675,0H560L400,422q-3,7-11.5,34T369,516t-20,60.5T337,612l23,1q-6-17-14.5-43t-18-55T309,460.5T294,418L135,0H25ZM145,174l40,104H503l46-104H145Z"/>
      <glyph unicode="B" glyph-name="gid10" horiz-adv-x="681" d="M98,0V700H390q67,0 113-20t69.5-59.5T596,524t-31.5-97T477,372v20q47-10 82-35.5T613.5,293T633,206q0-50-15.5-88.5T571.5,53T498,13.5T400,0H98ZM206,104H394q41,0 69.5,12t44,35.5T523,208q0,31-16.5,53T460,294.5T389,306H206V104Zm0,306H384q30,0 53.5,12t37,33T488,503q0,45-30,69t-86,24H206V410Z"/>
      <glyph unicode="C" glyph-name="gid11" horiz-adv-x="679" d="M382-10q-73,0-134,26T142,90.5T72.5,205T48,350q0,75 26.5,139.5T148,603t109,76t134,27q51,0 99.5-15.5t88-43T643,585l-72-75q-29,29-58.5,48.5t-60,29.5T391,598q-49,0-91.5-18.5t-74-51.5T176,449.5T158,350q0-57 17.5-103.5T225,167t76.5-50.5T400,99q33,0 65,9t60,26t51,40l54-88q-23-27-62.5-49t-88-34.5T382-10Z"/>
      <glyph unicode="D" glyph-name="gid13" horiz-adv-x="748" d="M98,0V700H372q75,0 135.5-25T611,603t66-111t23-142T677,207.5t-65.5-111T508,25T372,0H98ZM206,93l-3,11H367q53,0 94.5,17t70,48.5T575,247t15,103T575,452.5T531,530t-70,49t-94,17H200l6,9V93Z"/>
      <glyph unicode="E" glyph-name="gid15" horiz-adv-x="614" d="M98,0V700H539V596H206V104H539V0H98Zm49,307V411H484V307H147Z"/>
      <glyph unicode="F" glyph-name="gid20" horiz-adv-x="602" d="M98,0V700H206V0H98Zm48,298V402H507V298H146Zm0,298V700H552V596H146Z"/>
      <glyph unicode="G" glyph-name="gid21" horiz-adv-x="766" d="M411-10q-76,0-142,27.5T153,94T75.5,208.5T48,350q0,75 27.5,140t77,113.5T268,679t142,27q53,0 103.5-15T605,649t67-62l-70-73q-30,29-61.5,48T476,591t-66,10q-54,0-99.5-19t-80-53T177,449.5T158,350q0-52 20-98.5T233.5,170t82-55T414,95q39,0 74,11.5T550,139t42,48.5T607,246v20l15-14H408V359H718q2-11 3-21.5t1.5-20T723,299q0-69-24-125.5T632.5,76t-99-63.5T411-10Z"/>
      <glyph unicode="H" glyph-name="gid22" horiz-adv-x="761" d="M555,0V700H663V0H555ZM98,0V700H206V0H98Zm47,297V401H603V297H145Z"/>
      <glyph unicode="I" glyph-name="gid23" horiz-adv-x="478" d="M72,0V100H185V600H72V700H406V600H293V100H406V0H72Z"/>
      <glyph unicode="J" glyph-name="gid28" horiz-adv-x="642" d="M256-10q-34,0-65,9T133.5,25T86,65.5T50,117l68,71q21-30 38.5-48T190,112t32-13.5T256,95q36,0 63,16.5T361,157t15,66V600H248V700H592V600H484V213q0-48-16.5-88.5T420.5,54t-72-47T256-10Z"/>
      <glyph unicode="K" glyph-name="gid29" horiz-adv-x="732" d="M188,212l-6,121L549,700H691L188,212ZM98,0V700H206V0H98ZM562,0L294,358l80,69L697,0H562Z"/>
      <glyph unicode="L" glyph-name="gid30" horiz-adv-x="599" d="M98,0V700H206V104H534V0H98Z"/>
      <glyph unicode="M" glyph-name="gid31" horiz-adv-x="864" d="M98,0V700H204L459,285l-51,1L666,700H766V0H658V287q0,90 4.5,162T678,592l14-37L463,201H397L175,551l11,41q11-67 15.5-137.5T206,287V0H98Z"/>
      <glyph unicode="N" glyph-name="gid32" horiz-adv-x="793" d="M98,0V700h97L623,127l-16-9q-4,25-7,54.5t-5.5,63t-4,71T588,385t-1,85V700H695V0H596L175,552l11,14q5-61 8.5-103.5t6-72t3.5-48t1.5-30.5t0.5-21V0H98Z"/>
      <glyph unicode="O" glyph-name="gid34" horiz-adv-x="782" d="M391-10q-74,0-136.5,27t-109,75.5t-72,114T48,350T73.5,493.5t72,114t109,75.5T391,710t136.5-27t109-76t72-114.5T734,350T708.5,207.5T636.5,93t-109-76T391-10Zm0,105q51,0 93.5,19T558,167.5t48.5,81T624,350T606.5,451.5t-48.5,81T484.5,586T391,605t-93.5-19t-74-53T175,452.5T158,350q0-55 17-102t48.5-81t74-53T391,95Z"/>
      <glyph unicode="P" glyph-name="gid42" horiz-adv-x="634" d="M98,0V700H383q57,0 103.5-28.5T561,594t28-109T561,376t-74.5-78.5T383,268H206V0H98ZM206,372H381q27,0 49,15.5t35.5,41T479,485t-13.5,56T430,581t-49,15H206V372Z"/>
      <glyph unicode="Q" glyph-name="gid44" horiz-adv-x="782" d="M613-110L348,237l89,59L699-48l-86-62ZM391-10q-74,0-136.5,27t-109,75.5t-72,114T48,350T73.5,493.5t72,114t109,75.5T391,710t136.5-27t109-76t72-114.5T734,350T708.5,207.5T636.5,93t-109-76T391-10Zm0,105q51,0 93.5,19T558,167.5t48.5,81T624,350T606.5,451.5t-48.5,81T484.5,586T391,605t-93.5-19t-74-53T175,452.5T158,350q0-55 17-102t48.5-81t74-53T391,95Z"/>
      <glyph unicode="R" glyph-name="gid45" horiz-adv-x="695" d="M98,0V700H396q60,0 110.5-29.5t80.5-80T617,477q0-57-30-106t-80-78.5T396,263H206V0H98ZM514,0L336,316l111,25L645-1L514,0ZM206,367H406q29,0 52,14.5t36,40T507,478q0,35-16.5,61.5t-46,41.5T378,596H206V367Z"/>
      <glyph unicode="S" glyph-name="gid46" horiz-adv-x="624" d="M314-10Q257-10 208.5,5t-88,45.5T50,126l74,85q49-70 94-97T325,87q38,0 69,12t49,33t18,48q0,18-6,34t-18.5,29t-32,24T359,286.5T299,301q-54,11-94,29t-67,45T98,436.5T85,514q0,42 18.5,78t51,62.5t76.5,41T326,710q54,0 99-14t80-41.5T563,587l-76-75q-20,33-45,55.5t-55,34T323,613q-39,0-68-12t-45.5-33.5T193,517q0-21 8-38.5t24.5-31t44.5-24T337,405q55-12 98-30.5T508,331t45.5-56T569,208q0-67-31-116T450,16.5T314-10Z"/>
      <glyph unicode="T" glyph-name="gid47" horiz-adv-x="576" d="M231,0V596H35V700H541V596H339V0H231Z"/>
      <glyph unicode="U" glyph-name="gid48" horiz-adv-x="740" d="M370-6Q289-6 225,29.5t-100.5,98T88,269V701H196V278q0-51 24-91.5T283.5,122T370,98q50,0 90.5,24T525,186.5T549,278V701H652V269q0-79-36.5-141.5T515,29.5T370-6Z"/>
      <glyph unicode="V" glyph-name="gid53" horiz-adv-x="715" d="M304,0L24,700H147L314,275q12-31 21.5-56T352,173.5T365,135t12-36l-26-1q7,24 15,50t18.5,57T410,275L565,700H691L409,0H304Z"/>
      <glyph unicode="W" glyph-name="gid54" horiz-adv-x="996" d="M247,0L24,700H139L274,262q6-16 11-37.5t9-43.5t7.5-41t6.5-31l-29,1q15,53 23.5,82T316,236.5t9,26.5L451,579h97L670,263q10-24 17.5-47.5t13.5-47T714,119l-26-7q5,27 7.5,42.5T700,180t4,19.5t6.5,24.5T723,265L856,700H972L749,0H674L489,438l9-4L320,0H247Z"/>
      <glyph unicode="X" glyph-name="gid55" horiz-adv-x="685" d="M524,0L307,314L29,700H166L378,390L661,0H524ZM24,0L291,381l67-79L151,0H24ZM394,325l-66,76L524,700H651L394,325Z"/>
      <glyph unicode="Y" glyph-name="gid56" horiz-adv-x="660" d="M286,0V349l7-49L10,700H140L356,390l-25,3L526,700H650L379,289l15,68V0H286Z"/>
      <glyph unicode="Z" glyph-name="gid58" horiz-adv-x="659" d="M60,0V79L459,613l15-17H86V700H593V622L196,87l-16,17H604V0H60Z"/>
      <glyph unicode="[" glyph-name="gid198" horiz-adv-x="403" d="M80-190V700H337V621H167l6,8V-123l-10,12H337v-79H80Z"/>
      <glyph unicode="\" glyph-name="gid186" horiz-adv-x="557" d="M446-107L48,700h99L547-107H446Z"/>
      <glyph unicode="]" glyph-name="gid199" horiz-adv-x="403" d="M66-190v79H236l-6-8V633l10-12H66v79H323V-190H66Z"/>
      <glyph unicode="^" glyph-name="gid240" horiz-adv-x="579" d="M29,368L240,727H340L551,368H436L281,633l20,3L142,368H29Z"/>
      <glyph unicode="_" glyph-name="gid193" horiz-adv-x="690" d="M53-160v78H637v-78H53Z"/>
      <glyph unicode="`" glyph-name="gid263" horiz-adv-x="500" d="M320,606L146,700l65,82L354,657l-34-51Z"/>
      <glyph unicode="a" glyph-name="gid60" horiz-adv-x="633" d="M274-10q-65,0-118.5,36T70,124T38,264q0,79 32.5,140.5t88,96.5T283,536q41,0 75-12t59.5-33.5t42-49.5T480,381l-23,8V525H561V0H457V125l24,7q-6-27-24.5-52.5T409.5,34t-63-32T274-10Zm27,95q47,0 83,23t56.5,63.5T461,264q0,51-20.5,91T384,418t-83,23q-46,0-81.5-23t-56-63T143,264q0-52 20.5-92.5t56-63.5T301,85Z"/>
      <glyph unicode="b" glyph-name="gid68" horiz-adv-x="630" d="M348-10q-34,0-67.5,11t-61,29.5t-46,41T149,117l26,14V3H72V740H175V405l-16,9q5,23 22,44.5t43.5,39t57.5,28T345,536q71,0 126-35t87-96.5T590,264T558.5,123T472,25.5T348-10ZM331,84q46,0 82,23.5t57,64T491,264q0,51-20.5,91.5T414,419t-83,23t-83-23t-57-63.5T170,264q0-52 21-92.5t57-64T331,84Z"/>
      <glyph unicode="c" glyph-name="gid69" horiz-adv-x="535" d="M295-10q-73,0-130.5,36t-91,98T40,263T73.5,402t91,98T295,536q70,0 127.5-28.5T510,430l-57-70q-16,23-41,42t-53,30t-54,11q-48,0-85.5-23.5T160,355t-22-92t23-91.5T222,107t84-24q27,0 52.5,9T408,119t45,44l57-70q-32-45-91.5-74T295-10Z"/>
      <glyph unicode="d" glyph-name="gid71" horiz-adv-x="634" d="M291-10q-72,0-128.5,35.5T73,122.5T40,263T72.5,403.5t88.5,97T288,536q39,0 75.5-12.5t65.5-34t45.5-47T491,391l-30-2V740H564V0H461V125h20q0-24-16-47.5T422.5,34t-61-32T291-10Zm14,89q47,0 83,24t56.5,65.5T465,263t-20.5,94.5T388,423t-83,24t-83-24t-56.5-65.5T145,263t20.5-94.5T222,103t83-24Z"/>
      <glyph unicode="e" glyph-name="gid73" horiz-adv-x="586" d="M317-10q-81,0-143.5,34.5T75.5,119T40,257q0,62 20,113t55.5,88.5t85,58T308,537q51,0 95-19.5T479.5,464t50-80.5T546,282l-1-44H116L93,320H456l-15-17v24q-3,33-22,59t-48,41t-63,15q-54,0-91-20.5t-56-60T142,264q0-55 23-95.5T230,106t97-22q39,0 72.5,13T472,144l52-73q-24-24-58.5-42t-73-28.5T317-10Z"/>
      <glyph unicode="f" glyph-name="gid78" horiz-adv-x="393" d="M129,0V584q0,45 20,80t55,55t81,20q32,0 60-12t45-32l-35-79q-13,12-28.5,19.5T297,643q-21,0-35.5-6.5t-21.5-20T233,584V0H181q-13,0-26,0T129,0ZM45,421v95H357V421H45Z"/>
      <glyph unicode="g" glyph-name="gid79" horiz-adv-x="649" d="M307-230q-56,0-111.5,17.5T106-167l38,80q20-15 47-26.5t57-18t59-6.5q55,0 92,18t56,53t19,87V121l11-7q-5-31-32.5-59.5T384,8T300-10q-75,0-133.5,35.5T74,122.5T40,263T73.5,403.5t92,97T297,536q30,0 58-7.5t52-21T450,478t31-34t15-34l-22-8V525H577V32q0-63-18.5-111.5t-53.5-82t-85-51T307-230Zm4,315q49,0 87,23t59,63t21,92t-21.5,92.5t-59,63.5T311,442q-48,0-85.5-23.5t-59-64T145,263t21.5-91.5t59-63.5T311,85Z"/>
      <glyph unicode="h" glyph-name="gid80" horiz-adv-x="595" d="M72,0V740H175V417l-18-12q10,35 39,64.5t69,48T347,536q60,0 100-23.5T507,441t20-121V0H424V313q0,45-12,74.5t-37,43T313,442q-30,0-55-9.5T214.5,406t-29-39.5T175,318V0H124Q111,0 98,0T72,0Z"/>
      <glyph unicode="i" glyph-name="gid81" horiz-adv-x="278" d="M89,0V525H192V0H89Zm50,641q-33,0-51,17T70,706q0,29 18.5,47T139,771q33,0 51-17t18-48q0-29-18.5-47T139,641Z"/>
      <glyph unicode="j" glyph-name="gid88" horiz-adv-x="265" d="M9-197l-39,79q39,0 64.5,13.5T73-64.5T86,1V525H189V-24q0-51-22.5-90t-63-61T9-197ZM140,641q-33,0-51,17T71,706q0,29 18.5,47T140,771q33,0 51-17t18-48q0-29-18.5-47T140,641Z"/>
      <glyph unicode="k" glyph-name="gid90" horiz-adv-x="568" d="M166,164l-5,112L412,525H551L166,164ZM72,0V740H175V0H72ZM426,0L228,231l73,67L558,0H426Z"/>
      <glyph unicode="l" glyph-name="gid91" horiz-adv-x="251" d="M74,0V740H177V0H74Z"/>
      <glyph unicode="m" glyph-name="gid92" horiz-adv-x="921" d="M70,0V525H174V413l-19-12q8,26 25.5,50t43,42.5t55,29.5T339,534q45,0 79-15t56-45t32-75l-16,4l7,17q11,23 30.5,43.5T572,500t53,25t55,9q59,0 97.5-24t58-73T855,315V0H751V309q0,45-11.5,73.5T705,425t-59,14q-28,0-52.5-9.5T551,403t-28-39.5T513,314V0H409V311q0,41-12,69.5T362,424t-56,15q-28,0-52-9.5t-42-26t-28-39T174,316V0H70Z"/>
      <glyph unicode="n" glyph-name="gid93" horiz-adv-x="595" d="M72,0V525H175V417l-18-12q10,35 39,64.5t69,48T347,536q60,0 100-23.5T507,441t20-121V0H424V313q0,45-12,74.5t-37,43T313,442q-30,0-55-9.5T214.5,406t-29-39.5T175,318V0H124Q111,0 98,0T72,0Z"/>
      <glyph unicode="o" glyph-name="gid95" horiz-adv-x="615" d="M308-10q-77,0-137.5,35.5T75,122.5T40,263T75,403.5t95.5,97T308,536q76,0 136.5-35.5t95.5-97T575,263T540,122.5t-95.5-97T308-10Zm0,94q47,0 84,23.5t58,64T470,263q1,52-20,92.5T392,419t-84,23t-84.5-23.5t-58.5-64T145,263q-1-51 20-91.5t58.5-64T308,84Z"/>
      <glyph unicode="p" glyph-name="gid103" horiz-adv-x="631" d="M72-220V525H176V405l-16,9q6,30 34,57.5t68.5,45T346,534q71,0 126-35t87-96t32-140q0-78-31.5-139.5T473,26.5T349-9Q303-9 260,9.5T187,57t-37,60l26,14V-220H72ZM332,86q46,0 82,23t57,63t21,91t-20.5,90.5T415,416t-83,23t-83-22.5T192,354t-21-91t21-91t57-63t83-23Z"/>
      <glyph unicode="q" glyph-name="gid105" horiz-adv-x="630" d="M455-220V125h20q0-24-16-47.5T416,34T356,2T288-10q-71,0-127,35.5t-88.5,97T40,263T72,403.5t87.5,97T285,536q39,0 74.5-13t64-34t45-46.5T485,391l-30-2V526H558V-220H455ZM299,85q47,0 83,23t56.5,63T459,263t-20.5,92.5T382,419t-83,23t-83-23.5t-56.5-64T139,263t20.5-91.5T216,108t83-23Z"/>
      <glyph unicode="r" glyph-name="gid106" horiz-adv-x="403" d="M72,0V525H176V360l-10,40q11,38 37.5,69t61,49T336,536q17,0 32.5-3t24.5-7L366,414q-12,5-26.5,8.5T311,426q-27,0-51.5-10.5t-43-29t-29.5-43T176,290V0H72Z"/>
      <glyph unicode="s" glyph-name="gid107" horiz-adv-x="479" d="M247-10q-66,0-119,23T40,81l70,60q30-35 65.5-50.5T256,75q18,0 33.5,4.5t27,13.5T334,114.5t6,27.5q0,26-19,42q-10,7-31.5,15.5T234,217q-58,15-95,34T82,294q-15,19-22,41.5T53,385q0,33 14.5,60.5t40,48t60,31.5T241,536q37,0 73.5-10T382,497t52-45l-59-65q-19,19-41.5,33.5T288,443t-42,8q-21,0-38-4t-28.5-12T162,415t-6-27q1-13 6.5-24.5T178,344q11-8 33-17t56-17q50-13 82.5-28.5T401,246q20-19 28-44t8-56q0-45-25.5-80.5T343,10T247-10Z"/>
      <glyph unicode="t" glyph-name="gid109" horiz-adv-x="384" d="M137,0V659H240V0H137ZM28,425V525H362V425H28Z"/>
      <glyph unicode="u" glyph-name="gid110" horiz-adv-x="605" d="M256-10q-56,0-97.5,26t-64,73T72,201V525H175V229q0-46 14.5-79.5t42-51.5T298,80q29,0 53,9.5T392.5,116T420,157t10,52V525H533V0H430V110l18,12q-12-37-40.5-67T340,7.5T256-10Z"/>
      <glyph unicode="v" glyph-name="gid115" horiz-adv-x="573" d="M244,0L22,525H133L293,132l-19-9L445,525H551L318,0H244Z"/>
      <glyph unicode="w" glyph-name="gid116" horiz-adv-x="800" d="M201,0L22,525l104,1L254,133l-23,2L370,442h62L572,134l-27-2L674,525H778L601,0H530L384,334l23-3L271,0H201Z"/>
      <glyph unicode="x" glyph-name="gid117" horiz-adv-x="562" d="M421,0L251,221l-15,19L15,525H145L312,307l17-22L547,0H421ZM16,0L223,270l61-73L138,0H16ZM335,254l-57,72L407,525H529L335,254Z"/>
      <glyph unicode="y" glyph-name="gid118" horiz-adv-x="581" d="M160-230L266,15l1-82L5,525H125L289,139q5-10 12-30.5T313,68l-26-6q8,21 15.5,42T317,146L454,525H576L360,0L271-230H160Z"/>
      <glyph unicode="z" glyph-name="gid121" horiz-adv-x="484" d="M50,0V86L321,448V436H50v89H433V441L166,84l-4,5H439V0H50Z"/>
      <glyph unicode="{" glyph-name="gid196" horiz-adv-x="411" d="M369-200q-49,10-84,25.5T227.5-136t-33,55T184-7l1,95q0,58-25.5,90.5T87,212H44v76H89q47,1 71.5,33T185,412l-1,95q0,82 43,127t142,66l18-69q-43-14-67.5-30T285,559.5T275,493l2-95q0-58-26.5-96T174,249l-1,3q51-17 77.5-55T277,102L275,7q0-41 10-66t34.5-41T387-131l-18-69Z"/>
      <glyph unicode="|" glyph-name="gid221" horiz-adv-x="231" d="M67-193V740h97V-193H67Z"/>
      <glyph unicode="}" glyph-name="gid197" horiz-adv-x="411" d="M42-200L24-131q43,14 67,30t34.5,41.5T136,7l-2,95q0,58 26.5,96T237,251l1-3q-51,17-77.5,55T134,398l2,95q0,41-10,66T92,600.5T24,631l18,69q49-10 84-25.5T183.5,636t33-55T227,507l-1-95q0-58 25.5-90.5T324,288h43V212H322q-47-1-71.5-33T226,88l1-95q0-82-43-127T42-200Z"/>
      <glyph unicode="~" glyph-name="gid238" horiz-adv-x="510" d="M356,225q-15,0-37,6t-43.5,14T239,258q-14,6-31.5,12t-33,10.5T151,285q-18,0-27.5-15T114,227H40q0,68 31.5,105T162,369q12,0 27.5-3.5t31-9t30.5-11T277,335q14-5 30.5-11t31-10.5T361,309q17,0 27,13.5t8,34.5l74-3q0-42-13-70.5T418.5,240T356,225Z"/>
      <glyph unicode="&#xa0;" glyph-name="gid169" horiz-adv-x="280"/>
      <glyph unicode="&#xa1;" glyph-name="gid178" horiz-adv-x="236" d="M141,289q7-63 12.5-130.5T162,25t3-125v-70H57v70q0,62 3,130t8.5,134.5T81,289h60ZM114,541q33,0 51-19.5T183,466q0-33-19-54t-50-21q-33,0-51,19.5T45,466q0,33 19,54t50,21Z"/>
      <glyph unicode="&#xa2;" glyph-name="gid223" horiz-adv-x="535" d="M295,78q-73,0-130.5,36t-91,98T40,351T73.5,490t91,98T295,624q70,0 127.5-28.5T510,518l-57-70q-16,23-41,42t-53,30t-54,11q-48,0-85.5-23.5T160,443t-22-92t23-91.5T222,195t84-24q27,0 52.5,9T408,207t45,44l57-70q-32-45-91.5-74T295,78ZM239,0V108l7,37V563l-7,43v94h97V605l-7-33V141l7-34V0H239Z"/>
      <glyph unicode="&#xa3;" glyph-name="gid227" horiz-adv-x="610" d="M197,53L122,74q15,8 27,27t19,45t7,55q0,14-1.5,28T169,260.5T159.5,300T143,352q-12,37-18,61t-8.5,41T114,487q0,67 28,117.5t78.5,78T340,710q67,0 116.5-22.5T529,625l-74-56q-15,16-33,26.5t-38.5,16T340,617q-37,0-65.5-17T230,553.5T214,486q0-31 10.5-67.5T245,353q10-30 20-64.5T275,224t-8.5-58.5t-25.5-56T197,53ZM425-21q-23,0-56.5,9T313,4q-13,4-31,9t-36,9t-32,4q-32,0-69.5-8.5T70-6L30,65q39,24 87,36.5T214,114q29,0 53-5t67-20q21-7 45-14.5T425,67q28,0 56,8.5T538,102l52-65Q559,9 515.5-6T425-21ZM44,323v85H452V323H44Z"/>
      <glyph unicode="&#xa4;" glyph-name="gid224" horiz-adv-x="550" d="M279,122q-49,0-89.5,24T125,211t-24,91t24,91t64.5,65T279,482t89.5-24.5T433,392t24-90q0-50-24-91t-64.5-65T279,122ZM129,82L58,152l92,98l71-71L129,82Zm19,277L50,451l70,70l98-92l-70-70ZM279,210q25,0 43.5,12t29,32.5T362,302t-10.5,48t-29,33T279,395q-24,0-42.5-12t-29-33T197,302t10.5-47.5t29-32.5T279,210ZM428,90l-98,92l70,70l98-92L428,90ZM407,362l-70,70l92,98l71-70l-93-98Z"/>
      <glyph unicode="&#xa5;" glyph-name="gid228" horiz-adv-x="660" d="M286,0V349l7-49L10,700H140L356,390l-25,3L526,700H650L379,289l15,68V0H286ZM146,90v86l412-2V88L146,90Zm0,140v86l412-2V228l-412,2Z"/>
      <glyph unicode="&#xa6;" glyph-name="gid222" horiz-adv-x="239" d="M71-202V198h97V-202H71Zm0,543V740h97V341H71Z"/>
      <glyph unicode="&#xa7;" glyph-name="gid215" horiz-adv-x="549" d="M323,128l-12,62q36,4 59,15t34,27t11,34q0,23-15.5,38T349,329L220,367q-9,3-29.5,13T148,409.5T110,460T94,536q0,38 13,70t38.5,55.5t63,36.5T295,711q37,0 70-9t60.5-27.5T476,628l-57-66q-17,18-37.5,30.5T338,611t-48,6q-42,0-70-21t-28-55q0-17 8.5-32T227,482t46-20l93-27q77-22 113.5-61T513,278q-3-49-27-82t-65.5-49.5T323,128ZM274-134q-38,0-78.5,11.5t-77,32T55-44l50,79q36-35 81.5-56.5T273-43q50,0 78.5,18.5T380,29q0,17-10,30T343,82T303,99L185,135q-70,21-104,59.5T47,290q0,43 20.5,77.5T127,423t94,21l10-70q-23-3-40.5-13.5t-27-25.5T154,300q0-24 19-42.5T235,227l95-27q37-10 71-30t55.5-51.5T478,41q0-51-23-90.5t-68-62T274-134Z"/>
      <glyph unicode="&#xa8;" glyph-name="gid262" horiz-adv-x="500" d="M350,642q-33,0-51,17t-18,48q0,29 18.5,47T350,772q33,0 51-17t18-48q0-29-18.5-47T350,642Zm-200,0q-33,0-51,17T81,707q0,29 18.5,47T150,772q33,0 51-17t18-48q0-29-18.5-47T150,642Z"/>
      <glyph unicode="&#xa9;" glyph-name="gid216" horiz-adv-x="786" d="M393-7Q318-7 253.5,20.5T140,97T63.5,210.5T36,350T63.5,489.5T140,603t113.5,76.5T393,707q74,0 138.5-27.5t114-76.5t77-113.5T750,350T722.5,210.5T645.5,97t-114-76.5T393-7Zm18,149q-60,0-108.5,27t-77,74T197,350q0,57 28.5,104t77,75T411,557q34,0 67-11.5T540,512l-37-75q-19,14-35,22.5T438,472t-27,4q-37,0-66-17t-45.5-45.5T283,350q0-37 16.5-66T345,239t66-16q23,0 47,9.5T507,261l37-76q-30-21-64-32t-69-11ZM393,67q59,0 110.5,22t90,60.5t60.5,90T676,350q0,60-22,111t-60.5,90t-90,60.5T393,633T282.5,611.5t-90-60.5T132,461T110,350q0-59 22-110.5t60.5-90t90-60.5T393,67Z"/>
      <glyph unicode="&#xaa;" glyph-name="gid128" horiz-adv-x="365" d="M143,391q-39,0-68,21.5t-44.5,60T15,562q0,46 18,82t49.5,56.5T155,721q49,0 75.5-33.5T257,592l-15,56v67h93V401H242v73l15,38q0-30-15.5-58T200,408.5T143,391Zm29,67q22,0 38.5,12t26,34t9.5,51q0,46-20,72.5T171,654q-17,0-31.5-12.5t-23-33.5T108,562q0-32 7.5-55.5t22-36T172,458Z"/>
      <glyph unicode="&#xab;" glyph-name="gid206" horiz-adv-x="486" d="M383,50L224,257v2L382,471l63-45L326,255l1,11L446,95L383,50ZM170,50L11,257v2L169,471l63-45L113,255l1,11L233,95L170,50Z"/>
      <glyph unicode="&#xac;" glyph-name="gid239" horiz-adv-x="670" d="M515,117V319l19-12H50v97H620V117H515Z"/>
      <glyph unicode="&#xad;" glyph-name="gid190" horiz-adv-x="394" d="M53,235V337H341V235H53Z"/>
      <glyph unicode="&#xae;" glyph-name="gid217" horiz-adv-x="507" d="M259,259q-64,0-116,30T60,370T29,484q0,47 18,88t49.5,71.5t73,48T259,709q47,0 88.5-17.5t73-48.5T470,571.5T488,484t-18-88t-49-71.5t-72.5-48T259,259Zm0,63q46,0 83.5,21.5t60,58.5T425,484t-22.5,82t-60,59T259,647q-47,0-85-22t-60.5-59T91,484t22.5-82T174,343.5T259,322Zm33,45L255,467l53,14l44-114H292Zm-120,0V606H282q33,0 53.5-20T356,534t-21.5-52.5T282,461H211l18,9V367H172Zm57,128l-16,7h49q17,0 28,7.5T301,529q0,13-9.5,20T264,556H210l19,8V495Z"/>
      <glyph unicode="&#xaf;" glyph-name="gid268" horiz-adv-x="424" d="M108,642v75H392V642H108Z"/>
      <glyph unicode="&#xb0;" glyph-name="gid219" horiz-adv-x="532" d="M266,399q-44,0-79.5,20.5t-56,55.5T110,553q0,44 20.5,79.5t55.5,56T266,709t80-20.5t55.5-56T422,554t-20.5-78.5t-56-56T266,399Zm0,67q23,0 41,12t29,32t11,44t-11,44t-29,31.5T266,641t-41.5-11.5t-29-31.5T185,553q0-24 11-44t29-31.5T266,466Z"/>
      <glyph unicode="&#xb1;" glyph-name="gid237" horiz-adv-x="582" d="M50,285v90H532V285H50ZM50-1V91H532V-1H50ZM240,143V534H344V143H240Z"/>
      <glyph unicode="&#xb2;" glyph-name="gid161" horiz-adv-x="346" d="M65,418l-9,71l99,99q9,8 22,21t23,29.5T210,672q0,16-9,25.5T175,707t-37.5-12.5T96,653L42,693q15,26 37,45.5t48,30T182,779q33,0 57.5-13T278,730.5T292,679q0-28-15-53.5t-35-47T205,541l-67-65l4,9H296V418H65Z"/>
      <glyph unicode="&#xb3;" glyph-name="gid162" horiz-adv-x="342" d="M165,412q-19,0-38.5,4.5T89,428.5T57,446l33,55q19-12 35.5-17.5T159,478q28,0 45.5,14.5T222,532q0,20-15.5,32.5T165,577q-13,0-28.5-3.5T109,565L88,622l102,88l19-6H79v68H265l7-66l-99-82l-13,7q5,3 13,5t13,2q52,0 81.5-28.5T297,533q0-35-17.5-62.5t-47.5-43T165,412Z"/>
      <glyph unicode="&#xb4;" glyph-name="gid264" horiz-adv-x="500" d="M180,606l-34,51L289,782l65-82L180,606Z"/>
      <glyph unicode="&#xb5;" glyph-name="gid241" horiz-adv-x="586" d="M80-157V525h97V222q0-47 12-78.5T225,96t59-16q29,0 53.5,11T380,121.5t28.5,45T419,222V525h97V0H419V114l7-14q-12-36-36-60.5t-55.5-37T269-10q-21,0-41.5,7.5t-36,21T170,49l7,13V-157H80Z"/>
      <glyph unicode="&#xb6;" glyph-name="gid214" horiz-adv-x="712" d="M246,0V314l24-35H236q-54,0-96.5,27t-67,73.5T48,486q0,65 28,113t78.5,74.5T273,700H614V0H506V660l16-64H310l44,56V0H246Z"/>
      <glyph unicode="&#xb7;" glyph-name="gid181" horiz-adv-x="228" d="M114,253q-33,0-51,19.5T45,328q0,33 19,54t50,21q33,0 51-19.5T183,328q0-33-19-54t-50-21Z"/>
      <glyph unicode="&#xb8;" glyph-name="gid269" horiz-adv-x="500" d="M159-244l-7,53q24,0 50,8t44,20.5T264-138q0,14-17,22t-38,12t-35,4L161-90L233,24h59L249-46q50-10 75-34t25-59q0-26-17.5-46T286-218.5t-61.5-20T159-244Z"/>
      <glyph unicode="&#xb9;" glyph-name="gid160" horiz-adv-x="281" d="M126,429V703l6-18L82,653L47,719l98,58h56V429H164q-10,0-19,0t-19,0Z"/>
      <glyph unicode="&#xba;" glyph-name="gid129" horiz-adv-x="354" d="M176,392q-45,0-80,20.5t-55.5,56T20,549q0,46 20.5,82.5T96,689t80,21t80.5-21.5t56.5-58T334,549t-20.5-80.5t-56.5-56T176,392Zm0,71q21,0 36.5,11t24,30.5T245,549q0,27-8.5,47t-24,31.5T176,639t-36-11.5T116.5,596T108,549q0-25 8.5-44.5t24-30.5T176,463Z"/>
      <glyph unicode="&#xbb;" glyph-name="gid207" horiz-adv-x="491" d="M320,50L257,95L376,266l-1-11L256,426l63,45L478,264v-2L320,50ZM104,50L41,95L160,266l-1-11L40,426l63,45L262,264v-2L104,50Z"/>
      <glyph unicode="&#xbc;" glyph-name="gid165" horiz-adv-x="793" d="M133,359V633l6-18L89,583L54,649l98,58h56V359H171q-10,0-19,0t-19,0ZM111,0L578,700h99L209,0H111ZM674,149h77V81H674v68ZM508,115l-16,34H633l-18-19V284l29-11L508,115ZM690-2H615V100l13-19H473l-17,69L624,356h66V-2Z"/>
      <glyph unicode="&#xbd;" glyph-name="gid164" horiz-adv-x="785" d="M133,359V633l6-18L89,583L54,649l98,58h56V359H171q-10,0-19,0t-19,0ZM113,0L580,700h99L211,0H113ZM522,0l-9,71l99,99q9,8 22,21t23,29.5T667,254q0,16-9,25.5T632,289t-37.5-12.5T553,235l-54,40q15,26 37,45.5t48,30T639,361q33,0 57.5-13T735,312.5T749,261q0-28-15-53.5t-35-47T662,123L595,58l4,9H753V0H522Z"/>
      <glyph unicode="&#xbe;" glyph-name="gid166" horiz-adv-x="791" d="M128,342q-19,0-38.5,4.5T52,358.5T20,376l33,55q19-12 35.5-17.5T122,408q28,0 45.5,14.5T185,462q0,20-15.5,32.5T128,507q-13,0-28.5-3.5T72,495L51,552l102,88l19-6H42v68H228l7-66l-99-82l-13,7q5,3 13,5t13,2q52,0 81.5-28.5T260,463q0-35-17.5-62.5t-47.5-43T128,342ZM121,0L588,700h99L219,0H121ZM672,149h77V81H672v68ZM506,115l-16,34H631l-18-19V284l29-11L506,115ZM688-2H613V100l13-19H471l-17,69L622,356h66V-2Z"/>
      <glyph unicode="&#xbf;" glyph-name="gid180" horiz-adv-x="511" d="M300,323l26-141q-39-10-70-22.5t-53.5-27T165,101T142.5,64.5T135,23q0-29 15.5-52T193-65t61-13q40,0 77.5,27.5T396,27l75-63q-43-66-102.5-102.5T244-175q-63,0-113,26T51.5-78T22,23q0,33 13.5,64.5T74,147t58.5,50T206,233l17,90h77Zm35,147q0-33-19-54t-50-21q-33,0-51,19.5T197,470q0,33 19,54t50,21q33,0 51-19.5T335,470Z"/>
      <glyph unicode="&#xc0;" glyph-name="gid6" horiz-adv-x="700" d="M25,0L296,700H406L675,0H560L400,422q-3,7-11.5,34T369,516t-20,60.5T337,612l23,1q-6-17-14.5-43t-18-55T309,460.5T294,418L135,0H25ZM145,174l40,104H503l46-104H145ZM426,755L224,830l49,90L456,807l-30-52Z"/>
      <glyph unicode="&#xc1;" glyph-name="gid2" horiz-adv-x="700" d="M25,0L296,700H406L675,0H560L400,422q-3,7-11.5,34T369,516t-20,60.5T337,612l23,1q-6-17-14.5-43t-18-55T309,460.5T294,418L135,0H25ZM145,174l40,104H503l46-104H145ZM282,755l-28,52L437,920l47-90L282,755Z"/>
      <glyph unicode="&#xc2;" glyph-name="gid4" horiz-adv-x="700" d="M25,0L296,700H406L675,0H560L400,422q-3,7-11.5,34T369,516t-20,60.5T337,612l23,1q-6-17-14.5-43t-18-55T309,460.5T294,418L135,0H25ZM145,174l40,104H503l46-104H145Zm81,581l-37,35L313,891h73L510,790l-37-35L335,820h29L226,755Z"/>
      <glyph unicode="&#xc3;" glyph-name="gid8" horiz-adv-x="700" d="M25,0L296,700H406L675,0H560L400,422q-3,7-11.5,34T369,516t-20,60.5T337,612l23,1q-6-17-14.5-43t-18-55T309,460.5T294,418L135,0H25ZM145,174l40,104H503l46-104H145ZM424,768q-23,0-46.5,7.5T333,791q-17,7-29,11t-22,4q-13,0-21.5-9.5T252,768H175q0,54 35,83.5T289,881q21,0 41-7t39-15q14-6 27.5-10t22.5-4q14,0 22,10t7,26h76q0-29-12-55t-34.5-42T424,768Z"/>
      <glyph unicode="&#xc4;" glyph-name="gid5" horiz-adv-x="700" d="M25,0L296,700H406L675,0H560L400,422q-3,7-11.5,34T369,516t-20,60.5T337,612l23,1q-6-17-14.5-43t-18-55T309,460.5T294,418L135,0H25ZM145,174l40,104H503l46-104H145ZM453,759q-35,0-52,18t-17,47q0,25 17,45t52,20t52-18t17-47q0-25-17-45t-52-20Zm-206,0q-35,0-52,18t-17,47q0,25 17,45t52,20t52-18t17-47q0-25-17-45t-52-20Z"/>
      <glyph unicode="&#xc5;" glyph-name="gid7" horiz-adv-x="700" d="M25,0L296,700H406L675,0H560L400,422q-3,7-11.5,34T369,516t-20,60.5T337,612l23,1q-6-17-14.5-43t-18-55T309,460.5T294,418L135,0H25ZM145,174l40,104H503l46-104H145ZM349,679q-28,0-53,14.5T255.5,732T240,784q0,30 15.5,54T296,876t53,14q29,0 54-14t40.5-38T459,784q0-28-15.5-52T403,693.5T349,679Zm0,59q21,0 35.5,13.5T399,784q0,23-15,35t-35,12t-34.5-13T300,784q0-19 14.5-32.5T349,738Z"/>
      <glyph unicode="&#xc6;" glyph-name="gid9" horiz-adv-x="969" d="M5,0L493,700H894V607H566V402H849V308H566V93H894V0H465V153H203l63,92H465V558l25-8L114,0H5Z"/>
      <glyph unicode="&#xc7;" glyph-name="gid12" horiz-adv-x="679" d="M382-10q-73,0-134,26T142,90.5T72.5,205T48,350q0,75 26.5,139.5T148,603t109,76t134,27q51,0 99.5-15.5t88-43T643,585l-72-75q-29,29-58.5,48.5t-60,29.5T391,598q-49,0-91.5-18.5t-74-51.5T176,449.5T158,350q0-57 17.5-103.5T225,167t76.5-50.5T400,99q33,0 65,9t60,26t51,40l54-88q-23-27-62.5-49t-88-34.5T382-10ZM284-244l-7,53q24,0 50,8t44,20.5T389-138q0,14-17,22t-38,12t-35,4L286-90L358,24h59L375-46q49-10 74-34t25-59q0-26-17-46t-45-33.5t-61.5-20T284-244Z"/>
      <glyph unicode="&#xc8;" glyph-name="gid19" horiz-adv-x="614" d="M98,0V700H539V596H206V104H539V0H98Zm49,307V411H484V307H147ZM403,755L201,830l49,90L433,807l-30-52Z"/>
      <glyph unicode="&#xc9;" glyph-name="gid16" horiz-adv-x="614" d="M98,0V700H539V596H206V104H539V0H98Zm49,307V411H484V307H147ZM259,755l-28,52L414,920l47-90L259,755Z"/>
      <glyph unicode="&#xca;" glyph-name="gid17" horiz-adv-x="614" d="M98,0V700H539V596H206V104H539V0H98Zm49,307V411H484V307H147Zm56,448l-37,35L290,891h73L487,790l-37-35L312,820h29L203,755Z"/>
      <glyph unicode="&#xcb;" glyph-name="gid18" horiz-adv-x="614" d="M98,0V700H539V596H206V104H539V0H98Zm49,307V411H484V307H147ZM430,759q-35,0-52,18t-17,47q0,25 17,45t52,20t52-18t17-47q0-25-17-45t-52-20Zm-206,0q-35,0-52,18t-17,47q0,25 17,45t52,20t52-18t17-47q0-25-17-45t-52-20Z"/>
      <glyph unicode="&#xcc;" glyph-name="gid27" horiz-adv-x="478" d="M72,0V100H185V600H72V700H406V600H293V100H406V0H72ZM315,755L113,830l49,90L345,807l-30-52Z"/>
      <glyph unicode="&#xcd;" glyph-name="gid24" horiz-adv-x="478" d="M72,0V100H185V600H72V700H406V600H293V100H406V0H72Zm99,755l-28,52L326,920l47-90L171,755Z"/>
      <glyph unicode="&#xce;" glyph-name="gid25" horiz-adv-x="478" d="M72,0V100H185V600H72V700H406V600H293V100H406V0H72Zm43,755L78,790L202,891h73L399,790l-37-35L224,820h29L115,755Z"/>
      <glyph unicode="&#xcf;" glyph-name="gid26" horiz-adv-x="478" d="M72,0V100H185V600H72V700H406V600H293V100H406V0H72ZM342,759q-35,0-52,18t-17,47q0,25 17,45t52,20t52-18t17-47q0-25-17-45t-52-20Zm-206,0q-35,0-52,18T67,824q0,25 17,45t52,20t52-18t17-47q0-25-17-45t-52-20Z"/>
      <glyph unicode="&#xd0;" glyph-name="gid14" horiz-adv-x="748" d="M49,305v90H317V305H49ZM98,0V700H372q75,0 135.5-25T611,603t66-111t23-142T677,207.5t-65.5-111T508,25T372,0H98ZM206,93l-3,11H367q53,0 94.5,17t70,48.5T575,247t15,103T575,452.5T531,530t-70,49t-94,17H200l6,9V93Z"/>
      <glyph unicode="&#xd1;" glyph-name="gid33" horiz-adv-x="793" d="M98,0V700h97L623,127l-16-9q-4,25-7,54.5t-5.5,63t-4,71T588,385t-1,85V700H695V0H596L175,552l11,14q5-61 8.5-103.5t6-72t3.5-48t1.5-30.5t0.5-21V0H98ZM471,768q-23,0-46.5,7.5T380,791q-17,7-29,11t-22,4q-13,0-21.5-9.5T299,768H222q0,54 35,83.5T336,881q21,0 41-7t39-15q14-6 27.5-10t22.5-4q14,0 22,10t7,26h76q0-29-12-55t-34.5-42T471,768Z"/>
      <glyph unicode="&#xd2;" glyph-name="gid38" horiz-adv-x="782" d="M391-10q-74,0-136.5,27t-109,75.5t-72,114T48,350T73.5,493.5t72,114t109,75.5T391,710t136.5-27t109-76t72-114.5T734,350T708.5,207.5T636.5,93t-109-76T391-10Zm0,105q51,0 93.5,19T558,167.5t48.5,81T624,350T606.5,451.5t-48.5,81T484.5,586T391,605t-93.5-19t-74-53T175,452.5T158,350q0-55 17-102t48.5-81t74-53T391,95Zm76,660L265,830l49,90L497,807l-30-52Z"/>
      <glyph unicode="&#xd3;" glyph-name="gid35" horiz-adv-x="782" d="M391-10q-74,0-136.5,27t-109,75.5t-72,114T48,350T73.5,493.5t72,114t109,75.5T391,710t136.5-27t109-76t72-114.5T734,350T708.5,207.5T636.5,93t-109-76T391-10Zm0,105q51,0 93.5,19T558,167.5t48.5,81T624,350T606.5,451.5t-48.5,81T484.5,586T391,605t-93.5-19t-74-53T175,452.5T158,350q0-55 17-102t48.5-81t74-53T391,95ZM323,755l-28,52L478,920l47-90L323,755Z"/>
      <glyph unicode="&#xd4;" glyph-name="gid36" horiz-adv-x="782" d="M391-10q-74,0-136.5,27t-109,75.5t-72,114T48,350T73.5,493.5t72,114t109,75.5T391,710t136.5-27t109-76t72-114.5T734,350T708.5,207.5T636.5,93t-109-76T391-10Zm0,105q51,0 93.5,19T558,167.5t48.5,81T624,350T606.5,451.5t-48.5,81T484.5,586T391,605t-93.5-19t-74-53T175,452.5T158,350q0-55 17-102t48.5-81t74-53T391,95ZM267,755l-37,35L354,891h73L551,790l-37-35L376,820h29L267,755Z"/>
      <glyph unicode="&#xd5;" glyph-name="gid40" horiz-adv-x="782" d="M391-10q-74,0-136.5,27t-109,75.5t-72,114T48,350T73.5,493.5t72,114t109,75.5T391,710t136.5-27t109-76t72-114.5T734,350T708.5,207.5T636.5,93t-109-76T391-10Zm0,105q51,0 93.5,19T558,167.5t48.5,81T624,350T606.5,451.5t-48.5,81T484.5,586T391,605t-93.5-19t-74-53T175,452.5T158,350q0-55 17-102t48.5-81t74-53T391,95Zm74,673q-23,0-46.5,7.5T374,791q-17,7-29,11t-22,4q-13,0-21.5-9.5T293,768H216q0,54 35,83.5T330,881q21,0 41-7t39-15q14-6 27.5-10t22.5-4q14,0 22,10t7,26h76q0-29-12-55t-34.5-42T465,768Z"/>
      <glyph unicode="&#xd6;" glyph-name="gid37" horiz-adv-x="782" d="M391-10q-74,0-136.5,27t-109,75.5t-72,114T48,350T73.5,493.5t72,114t109,75.5T391,710t136.5-27t109-76t72-114.5T734,350T708.5,207.5T636.5,93t-109-76T391-10Zm0,105q51,0 93.5,19T558,167.5t48.5,81T624,350T606.5,451.5t-48.5,81T484.5,586T391,605t-93.5-19t-74-53T175,452.5T158,350q0-55 17-102t48.5-81t74-53T391,95ZM494,759q-35,0-52,18t-17,47q0,25 17,45t52,20t52-18t17-47q0-25-17-45t-52-20Zm-206,0q-35,0-52,18t-17,47q0,25 17,45t52,20t52-18t17-47q0-25-17-45t-52-20Z"/>
      <glyph unicode="&#xd7;" glyph-name="gid232" horiz-adv-x="484" d="M385,78L35,426l64,60L449,137L385,78ZM98,71L39,136L387,486l60-64L98,71Z"/>
      <glyph unicode="&#xd8;" glyph-name="gid39" horiz-adv-x="770" d="M123-33L60,20L649,741l68-47L123-33ZM390-10q-74,0-136.5,27t-109,75.5t-72,114T47,350T72.5,493.5t72,114t109,75.5T390,710t136.5-27t109-76t72-114.5T733,350T707.5,207.5T635.5,93t-109-76T390-10Zm0,105q51,0 93.5,19T557,167.5t48.5,81T623,350T605.5,451.5t-48.5,81T483.5,586T390,605t-93.5-19t-74-53T174,452.5T157,350q0-55 17-102t48.5-81t74-53T390,95Z"/>
      <glyph unicode="&#xd9;" glyph-name="gid52" horiz-adv-x="740" d="M370-6Q289-6 225,29.5t-100.5,98T88,269V701H196V278q0-51 24-91.5T283.5,122T370,98q50,0 90.5,24T525,186.5T549,278V701H652V269q0-79-36.5-141.5T515,29.5T370-6Zm76,761L244,830l49,90L476,807l-30-52Z"/>
      <glyph unicode="&#xda;" glyph-name="gid49" horiz-adv-x="740" d="M370-6Q289-6 225,29.5t-100.5,98T88,269V701H196V278q0-51 24-91.5T283.5,122T370,98q50,0 90.5,24T525,186.5T549,278V701H652V269q0-79-36.5-141.5T515,29.5T370-6ZM302,755l-28,52L457,920l47-90L302,755Z"/>
      <glyph unicode="&#xdb;" glyph-name="gid50" horiz-adv-x="740" d="M370-6Q289-6 225,29.5t-100.5,98T88,269V701H196V278q0-51 24-91.5T283.5,122T370,98q50,0 90.5,24T525,186.5T549,278V701H652V269q0-79-36.5-141.5T515,29.5T370-6ZM246,755l-37,35L333,891h73L530,790l-37-35L355,820h29L246,755Z"/>
      <glyph unicode="&#xdc;" glyph-name="gid51" horiz-adv-x="740" d="M370-6Q289-6 225,29.5t-100.5,98T88,269V701H196V278q0-51 24-91.5T283.5,122T370,98q50,0 90.5,24T525,186.5T549,278V701H652V269q0-79-36.5-141.5T515,29.5T370-6ZM473,759q-35,0-52,18t-17,47q0,25 17,45t52,20t52-18t17-47q0-25-17-45t-52-20Zm-206,0q-35,0-52,18t-17,47q0,25 17,45t52,20t52-18t17-47q0-25-17-45t-52-20Z"/>
      <glyph unicode="&#xdd;" glyph-name="gid57" horiz-adv-x="660" d="M286,0V349l7-49L10,700H140L356,390l-25,3L526,700H650L379,289l15,68V0H286ZM262,755l-28,52L417,920l47-90L262,755Z"/>
      <glyph unicode="&#xde;" glyph-name="gid43" horiz-adv-x="634" d="M98,0V700H206V573H383q57,0 103.5-28.5T561,467t28-109T561,248.5T486.5,170T383,141H206V0H98ZM206,245H381q27,0 49,15.5t35.5,41T479,358t-13.5,56T430,454t-49,15H206V245Z"/>
      <glyph unicode="&#xdf;" glyph-name="gid108" horiz-adv-x="664" d="M422-10q-48,0-84,16.5T275,57l52,55q27-24 50-34t47-10q46,0 73.5,34T525,189q0,39-10.5,70t-33,55.5T425,356t-81,29v65q29,12 50,25.5t35,28t21,30t7,31.5q0,37-28.5,58T350,644q-57,0-90.5-39T226,502V0H129V499q0,70 27.5,123t78,82.5T354,734q61,0 105.5-20.5t69-56.5T553,574q0-27-13-53t-36.5-47T449,439l-2,4q39-12 71-35t55.5-54.5t36-69.5T622,203q0-61-26-109T525,18T422-10ZM45,404v93H180V404H45Z"/>
      <glyph unicode="&#xe0;" glyph-name="gid64" horiz-adv-x="633" d="M274-10q-65,0-118.5,36T70,124T38,264q0,79 32.5,140.5t88,96.5T283,536q41,0 75-12t59.5-33.5t42-49.5T480,381l-23,8V525H561V0H457V125l24,7q-6-27-24.5-52.5T409.5,34t-63-32T274-10Zm27,95q47,0 83,23t56.5,63.5T461,264q0,51-20.5,91T384,418t-83,23q-46,0-81.5-23t-56-63T143,264q0-52 20.5-92.5t56-63.5T301,85Zm66,521L193,700l65,82L401,657l-34-51Z"/>
      <glyph unicode="&#xe1;" glyph-name="gid61" horiz-adv-x="633" d="M274-10q-65,0-118.5,36T70,124T38,264q0,79 32.5,140.5t88,96.5T283,536q41,0 75-12t59.5-33.5t42-49.5T480,381l-23,8V525H561V0H457V125l24,7q-6-27-24.5-52.5T409.5,34t-63-32T274-10Zm27,95q47,0 83,23t56.5,63.5T461,264q0,51-20.5,91T384,418t-83,23q-46,0-81.5-23t-56-63T143,264q0-52 20.5-92.5t56-63.5T301,85ZM247,606l-34,51L356,782l65-82L247,606Z"/>
      <glyph unicode="&#xe2;" glyph-name="gid62" horiz-adv-x="633" d="M274-10q-65,0-118.5,36T70,124T38,264q0,79 32.5,140.5t88,96.5T283,536q41,0 75-12t59.5-33.5t42-49.5T480,381l-23,8V525H561V0H457V125l24,7q-6-27-24.5-52.5T409.5,34t-63-32T274-10Zm27,95q47,0 83,23t56.5,63.5T461,264q0,51-20.5,91T384,418t-83,23q-46,0-81.5-23t-56-63T143,264q0-52 20.5-92.5t56-63.5T301,85ZM197,607l-38,33L274,753h86L475,640l-38-33L302,680h30L197,607Z"/>
      <glyph unicode="&#xe3;" glyph-name="gid66" horiz-adv-x="633" d="M274-10q-65,0-118.5,36T70,124T38,264q0,79 32.5,140.5t88,96.5T283,536q41,0 75-12t59.5-33.5t42-49.5T480,381l-23,8V525H561V0H457V125l24,7q-6-27-24.5-52.5T409.5,34t-63-32T274-10Zm27,95q47,0 83,23t56.5,63.5T461,264q0,51-20.5,91T384,418t-83,23q-46,0-81.5-23t-56-63T143,264q0-52 20.5-92.5t56-63.5T301,85Zm67,530q-20,0-33.5,8T306,643q-19,17-28.5,23.5T260,673q-13,0-23-14.5T223,615l-68,10q2,49 31.5,85T265,746q20,0 33.5-8T327,718q20-16 29-23t17-7q14,0 23.5,15T410,746l68-10q-1-32-15-60t-38-44.5T368,615Z"/>
      <glyph unicode="&#xe4;" glyph-name="gid63" horiz-adv-x="633" d="M274-10q-65,0-118.5,36T70,124T38,264q0,79 32.5,140.5t88,96.5T283,536q41,0 75-12t59.5-33.5t42-49.5T480,381l-23,8V525H561V0H457V125l24,7q-6-27-24.5-52.5T409.5,34t-63-32T274-10Zm27,95q47,0 83,23t56.5,63.5T461,264q0,51-20.5,91T384,418t-83,23q-46,0-81.5-23t-56-63T143,264q0-52 20.5-92.5t56-63.5T301,85ZM417,642q-33,0-51,17t-18,48q0,29 18.5,47T417,772q33,0 51-17t18-48q0-29-18.5-47T417,642Zm-200,0q-33,0-51,17t-18,48q0,29 18.5,47T217,772q33,0 51-17t18-48q0-29-18.5-47T217,642Z"/>
      <glyph unicode="&#xe5;" glyph-name="gid65" horiz-adv-x="633" d="M274-10q-65,0-118.5,36T70,124T38,264q0,79 32.5,140.5t88,96.5T283,536q41,0 75-12t59.5-33.5t42-49.5T480,381l-23,8V525H561V0H457V125l24,7q-6-27-24.5-52.5T409.5,34t-63-32T274-10Zm27,95q47,0 83,23t56.5,63.5T461,264q0,51-20.5,91T384,418t-83,23q-46,0-81.5-23t-56-63T143,264q0-52 20.5-92.5t56-63.5T301,85Zm15,519q-28,0-53,14.5T222.5,657T207,709q0,29 15,53t40,38.5T316,815q30,0 55-14.5T411,762t15-53q0-28-15-52t-40-38.5T316,604Zm0,59q21,0 35.5,13.5T366,709q0,21-14.5,34T316,756t-35-13.5T267,709q0-19 14.5-32.5T316,663Z"/>
      <glyph unicode="&#xe6;" glyph-name="gid67" horiz-adv-x="899" d="M216-10q-51,0-91,20T61.5,65.5T38,149q0,42 15,74t45,53.5t74,32T274,319H769l-15-17v24q-3,33-22,59t-48,41t-63,15q-50,0-84.5-20T484,361.5T466,264q0-53 25-93.5T558.5,107T654,84q39,0 72.5,13T799,144l50-75q-24-23-58-41T719,0T644-10q-81,0-142,33.5t-95,94T373,257q0,61 19,112t52.5,88.5t79,58T621,536q68-1 122-34t85-90.5T859,281l-1-44H261q-30,0-53.5-5.5t-40-17t-24.5-27T135,151q0-22 11-38.5T176,87t44-9q36,0 68.5,12.5t58,34.5T386,174l44-67q-23-35-57-61T299,5T216-10ZM373,257v99q0,18-9,34t-24.5,27T304,434.5T262,441q-44,0-79.5-18T118,368L51,435q29,33 62.5,55.5t71.5,34T264,536q47,0 84-10t63.5-28.5t40.5-46T466,388V263l-93-6Z"/>
      <glyph unicode="&#xe7;" glyph-name="gid70" horiz-adv-x="535" d="M295-10q-73,0-130.5,36t-91,98T40,263T73.5,402t91,98T295,536q70,0 127.5-28.5T510,430l-57-70q-16,23-41,42t-53,30t-54,11q-48,0-85.5-23.5T160,355t-22-92t23-91.5T222,107t84-24q27,0 52.5,9T408,119t45,44l57-70q-32-45-91.5-74T295-10ZM204-244l-7,53q24,0 50,8t44,20.5T309-138q0,14-17,22t-38,12t-35,4L206-90L278,24h59L294-46q50-10 75-34t25-59q0-26-17.5-46T331-218.5t-61.5-20T204-244Z"/>
      <glyph unicode="&#xe8;" glyph-name="gid77" horiz-adv-x="586" d="M317-10q-81,0-143.5,34.5T75.5,119T40,257q0,62 20,113t55.5,88.5t85,58T308,537q51,0 95-19.5T479.5,464t50-80.5T546,282l-1-44H116L93,320H456l-15-17v24q-3,33-22,59t-48,41t-63,15q-54,0-91-20.5t-56-60T142,264q0-55 23-95.5T230,106t97-22q39,0 72.5,13T472,144l52-73q-24-24-58.5-42t-73-28.5T317-10Zm41,616L184,700l65,82L392,657l-34-51Z"/>
      <glyph unicode="&#xe9;" glyph-name="gid74" horiz-adv-x="586" d="M317-10q-81,0-143.5,34.5T75.5,119T40,257q0,62 20,113t55.5,88.5t85,58T308,537q51,0 95-19.5T479.5,464t50-80.5T546,282l-1-44H116L93,320H456l-15-17v24q-3,33-22,59t-48,41t-63,15q-54,0-91-20.5t-56-60T142,264q0-55 23-95.5T230,106t97-22q39,0 72.5,13T472,144l52-73q-24-24-58.5-42t-73-28.5T317-10ZM238,606l-34,51L347,782l65-82L238,606Z"/>
      <glyph unicode="&#xea;" glyph-name="gid75" horiz-adv-x="586" d="M317-10q-81,0-143.5,34.5T75.5,119T40,257q0,62 20,113t55.5,88.5t85,58T308,537q51,0 95-19.5T479.5,464t50-80.5T546,282l-1-44H116L93,320H456l-15-17v24q-3,33-22,59t-48,41t-63,15q-54,0-91-20.5t-56-60T142,264q0-55 23-95.5T230,106t97-22q39,0 72.5,13T472,144l52-73q-24-24-58.5-42t-73-28.5T317-10ZM188,607l-38,33L265,753h86L466,640l-38-33L293,680h30L188,607Z"/>
      <glyph unicode="&#xeb;" glyph-name="gid76" horiz-adv-x="586" d="M317-10q-81,0-143.5,34.5T75.5,119T40,257q0,62 20,113t55.5,88.5t85,58T308,537q51,0 95-19.5T479.5,464t50-80.5T546,282l-1-44H116L93,320H456l-15-17v24q-3,33-22,59t-48,41t-63,15q-54,0-91-20.5t-56-60T142,264q0-55 23-95.5T230,106t97-22q39,0 72.5,13T472,144l52-73q-24-24-58.5-42t-73-28.5T317-10Zm91,652q-33,0-51,17t-18,48q0,29 18.5,47T408,772q33,0 51-17t18-48q0-29-18.5-47T408,642Zm-200,0q-33,0-51,17t-18,48q0,29 18.5,47T208,772q33,0 51-17t18-48q0-29-18.5-47T208,642Z"/>
      <glyph unicode="&#xec;" glyph-name="gid87" horiz-adv-x="243" d="M70,0V525H173V0H70ZM170,606L-4,700l65,82L204,657l-34-51Z"/>
      <glyph unicode="&#xed;" glyph-name="gid83" horiz-adv-x="243" d="M70,0V525H173V0H70ZM50,606L16,657L159,782l65-82L50,606Z"/>
      <glyph unicode="&#xee;" glyph-name="gid84" horiz-adv-x="243" d="M70,0V525H173V0H70ZM0,607l-38,33L77,753h86L278,640l-38-33L105,680h30L0,607Z"/>
      <glyph unicode="&#xef;" glyph-name="gid85" horiz-adv-x="243" d="M70,0V525H173V0H70ZM220,642q-33,0-51,17t-18,48q0,29 18.5,47T220,772q33,0 51-17t18-48q0-29-18.5-47T220,642ZM20,642q-33,0-51,17t-18,48q0,29 18.5,47T20,772q33,0 51-17t18-48q0-29-18.5-47T20,642Z"/>
      <glyph unicode="&#xf0;" glyph-name="gid72" horiz-adv-x="574" d="M287-7Q218-7 162,29T73,126T40,262q0,54 19,102t52,85t75.5,58T275,528q50,0 89.5-22t66-62.5T468,348l-50,31q-2,46-12.5,83.5t-29.5,68t-47.5,54t-68,42.5T169,662l42,78q59-14 109-42.5T409.5,628T477,534t42.5-116.5T534,281q0-85-31.5-150T415,29.5T287-7Zm0,96q42,0 76,23t54,62t20,88q0,47-20,85.5T363,409t-76,23t-76-22.5t-54-61T137,262q0-49 20-88t54-62t76-23ZM156,528l-13,65l145,37l55,20l146,33l18-66L394,591l-41-17L156,528Z"/>
      <glyph unicode="&#xf1;" glyph-name="gid94" horiz-adv-x="595" d="M72,0V525H175V417l-18-12q10,35 39,64.5t69,48T347,536q60,0 100-23.5T507,441t20-121V0H424V313q0,45-12,74.5t-37,43T313,442q-30,0-55-9.5T214.5,406t-29-39.5T175,318V0H124Q111,0 98,0T72,0ZM379,615q-20,0-33.5,8T317,643q-19,17-28.5,23.5T271,673q-13,0-23-14.5T234,615l-68,10q2,49 31.5,85T276,746q20,0 33.5-8T338,718q20-16 29-23t17-7q14,0 23.5,15T421,746l68-10q-1-32-15-60t-38-44.5T379,615Z"/>
      <glyph unicode="&#xf2;" glyph-name="gid99" horiz-adv-x="615" d="M308-10q-77,0-137.5,35.5T75,122.5T40,263T75,403.5t95.5,97T308,536q76,0 136.5-35.5t95.5-97T575,263T540,122.5t-95.5-97T308-10Zm0,94q47,0 84,23.5t58,64T470,263q1,52-20,92.5T392,419t-84,23t-84.5-23.5t-58.5-64T145,263q-1-51 20-91.5t58.5-64T308,84Zm50,522L184,700l65,82L392,657l-34-51Z"/>
      <glyph unicode="&#xf3;" glyph-name="gid96" horiz-adv-x="615" d="M308-10q-77,0-137.5,35.5T75,122.5T40,263T75,403.5t95.5,97T308,536q76,0 136.5-35.5t95.5-97T575,263T540,122.5t-95.5-97T308-10Zm0,94q47,0 84,23.5t58,64T470,263q1,52-20,92.5T392,419t-84,23t-84.5-23.5t-58.5-64T145,263q-1-51 20-91.5t58.5-64T308,84ZM238,606l-34,51L347,782l65-82L238,606Z"/>
      <glyph unicode="&#xf4;" glyph-name="gid97" horiz-adv-x="615" d="M308-10q-77,0-137.5,35.5T75,122.5T40,263T75,403.5t95.5,97T308,536q76,0 136.5-35.5t95.5-97T575,263T540,122.5t-95.5-97T308-10Zm0,94q47,0 84,23.5t58,64T470,263q1,52-20,92.5T392,419t-84,23t-84.5-23.5t-58.5-64T145,263q-1-51 20-91.5t58.5-64T308,84ZM188,607l-38,33L265,753h86L466,640l-38-33L293,680h30L188,607Z"/>
      <glyph unicode="&#xf5;" glyph-name="gid101" horiz-adv-x="615" d="M308-10q-77,0-137.5,35.5T75,122.5T40,263T75,403.5t95.5,97T308,536q76,0 136.5-35.5t95.5-97T575,263T540,122.5t-95.5-97T308-10Zm0,94q47,0 84,23.5t58,64T470,263q1,52-20,92.5T392,419t-84,23t-84.5-23.5t-58.5-64T145,263q-1-51 20-91.5t58.5-64T308,84Zm51,531q-20,0-33.5,8T297,643q-19,17-28.5,23.5T251,673q-13,0-23-14.5T214,615l-68,10q2,49 31.5,85T256,746q20,0 33.5-8T318,718q20-16 29-23t17-7q14,0 23.5,15T401,746l68-10q-1-32-15-60t-38-44.5T359,615Z"/>
      <glyph unicode="&#xf6;" glyph-name="gid98" horiz-adv-x="615" d="M308-10q-77,0-137.5,35.5T75,122.5T40,263T75,403.5t95.5,97T308,536q76,0 136.5-35.5t95.5-97T575,263T540,122.5t-95.5-97T308-10Zm0,94q47,0 84,23.5t58,64T470,263q1,52-20,92.5T392,419t-84,23t-84.5-23.5t-58.5-64T145,263q-1-51 20-91.5t58.5-64T308,84ZM408,642q-33,0-51,17t-18,48q0,29 18.5,47T408,772q33,0 51-17t18-48q0-29-18.5-47T408,642Zm-200,0q-33,0-51,17t-18,48q0,29 18.5,47T208,772q33,0 51-17t18-48q0-29-18.5-47T208,642Z"/>
      <glyph unicode="&#xf7;" glyph-name="gid233" horiz-adv-x="597" d="M50,215v90H547V215H50ZM293,15q-18,0-33,9T236,47.5T227,80t9,33t24,23.5t33,8.5t33-8.5T349.5,113T358,80t-8.5-32.5T326,24t-33-9Zm0,357q-18,0-33,9t-24,23.5T227,436q0,18 9,33t24,24t33,9t33-9t23.5-24t8.5-33q0-17-9-31.5T325,381t-32-9Z"/>
      <glyph unicode="&#xf8;" glyph-name="gid100" horiz-adv-x="615" d="M107-35L41,13L494,545l67-49L107-35ZM308-10q-77,0-137.5,35.5T75,122.5T40,263T75,403.5t95.5,97T308,536q76,0 136.5-35.5t95.5-97T575,263T540,122.5t-95.5-97T308-10Zm0,94q47,0 84,23.5t58,64T470,263q1,52-20,92.5T392,419t-84,23t-84.5-23.5t-58.5-64T145,263q-1-51 20-91.5t58.5-64T308,84Z"/>
      <glyph unicode="&#xf9;" glyph-name="gid114" horiz-adv-x="605" d="M256-10q-56,0-97.5,26t-64,73T72,201V525H175V229q0-46 14.5-79.5t42-51.5T298,80q29,0 53,9.5T392.5,116T420,157t10,52V525H533V0H430V110l18,12q-12-37-40.5-67T340,7.5T256-10Zm97,616L179,700l65,82L387,657l-34-51Z"/>
      <glyph unicode="&#xfa;" glyph-name="gid111" horiz-adv-x="605" d="M256-10q-56,0-97.5,26t-64,73T72,201V525H175V229q0-46 14.5-79.5t42-51.5T298,80q29,0 53,9.5T392.5,116T420,157t10,52V525H533V0H430V110l18,12q-12-37-40.5-67T340,7.5T256-10ZM233,606l-34,51L342,782l65-82L233,606Z"/>
      <glyph unicode="&#xfb;" glyph-name="gid112" horiz-adv-x="605" d="M256-10q-56,0-97.5,26t-64,73T72,201V525H175V229q0-46 14.5-79.5t42-51.5T298,80q29,0 53,9.5T392.5,116T420,157t10,52V525H533V0H430V110l18,12q-12-37-40.5-67T340,7.5T256-10ZM183,607l-38,33L260,753h86L461,640l-38-33L288,680h30L183,607Z"/>
      <glyph unicode="&#xfc;" glyph-name="gid113" horiz-adv-x="605" d="M256-10q-56,0-97.5,26t-64,73T72,201V525H175V229q0-46 14.5-79.5t42-51.5T298,80q29,0 53,9.5T392.5,116T420,157t10,52V525H533V0H430V110l18,12q-12-37-40.5-67T340,7.5T256-10ZM403,642q-33,0-51,17t-18,48q0,29 18.5,47T403,772q33,0 51-17t18-48q0-29-18.5-47T403,642Zm-200,0q-33,0-51,17t-18,48q0,29 18.5,47T203,772q33,0 51-17t18-48q0-29-18.5-47T203,642Z"/>
      <glyph unicode="&#xfd;" glyph-name="gid119" horiz-adv-x="581" d="M160-230L266,15l1-82L5,525H125L289,139q5-10 12-30.5T313,68l-26-6q8,21 15.5,42T317,146L454,525H576L360,0L271-230H160Zm61,836l-34,51L330,782l65-82L221,606Z"/>
      <glyph unicode="&#xfe;" glyph-name="gid104" horiz-adv-x="631" d="M72-220V740H176V405l-16,9q6,30 34,57.5t68.5,45T346,534q53,0 97.5-20t78-56.5t51.5-86T591,263q0-78-31.5-139.5T473,26.5T349-9Q303-9 260,9.5T187,57t-37,60l26,14V-220H72ZM332,86q46,0 82,23t57,63t21,91t-20.5,90.5T415,416t-83,23t-83-22.5T192,354t-21-91t21-91t57-63t83-23Z"/>
      <glyph unicode="&#xff;" glyph-name="gid120" horiz-adv-x="581" d="M160-230L266,15l1-82L5,525H125L289,139q5-10 12-30.5T313,68l-26-6q8,21 15.5,42T317,146L454,525H576L360,0L271-230H160ZM391,642q-33,0-51,17t-18,48q0,29 18.5,47T391,772q33,0 51-17t18-48q0-29-18.5-47T391,642Zm-200,0q-33,0-51,17t-18,48q0,29 18.5,47T191,772q33,0 51-17t18-48q0-29-18.5-47T191,642Z"/>
      <glyph unicode="&#x2013;" glyph-name="gid191" horiz-adv-x="514" d="M53,237v99H461V237H53Z"/>
      <glyph unicode="&#x2014;" glyph-name="gid192" horiz-adv-x="868" d="M53,237V337H815V237H53Z"/>
      <glyph unicode="&#x2018;" glyph-name="gid204" horiz-adv-x="241" d="M139,480q-28,0-50.5,14.5T53,534.5T40,593q0,26 11,51t30.5,47T127,730t56,26l38-46q-39-18-64-41t-25-40q0-13 11-23t20-18q22-18 29.5-30t7.5-25q0-24-17-38.5T139,480Z"/>
      <glyph unicode="&#x2019;" glyph-name="gid205" horiz-adv-x="241" d="M58,475L20,521q39,18 64,41t25,40q0,13-11,23.5T78,643q-22,18-29.5,30T41,698q0,24 17,38.5T102,751q28,0 50.5-14.5T188,697t13-59q0-26-11-51t-30.5-47T114,501T58,475Z"/>
      <glyph unicode="&#x201a;" glyph-name="gid200" horiz-adv-x="267" d="M88-179L50-133q35,20 57,46t22,45q0,10-5,19.5T103,4Q83,23 77,36T71,64q0,24 17,38.5T132,117q25,0 45.5-14.5t32-40T221,4q0-30-10-58t-28-52t-42-43T88-179Z"/>
      <glyph unicode="&#x201c;" glyph-name="gid202" horiz-adv-x="448" d="M139,475q-28,0-50.5,14.5T53,529.5T40,588q0,26 11,51t30.5,47T127,725t56,26l38-46q-39-18-64-41t-25-40q0-13 11-23t20-18q22-18 29.5-30t7.5-25q0-24-17-38.5T139,475Zm207,0q-28,0-50.5,14.5t-35.5,40T247,588q0,26 11,51t30.5,47T334,725t56,26l38-46q-39-18-64-41t-25-40q0-13 11-23t20-18q22-18 29.5-30t7.5-25q0-24-17-38.5T346,475Z"/>
      <glyph unicode="&#x201d;" glyph-name="gid203" horiz-adv-x="445" d="M58,475L20,521q39,18 64,41t25,40q0,13-11,23.5T78,643q-22,18-29.5,30T41,698q0,24 17,38.5T102,751q28,0 50.5-14.5T188,697t13-59q0-26-11-51t-30.5-47T114,501T58,475Zm204,0l-38,46q39,18 64,41t25,40q0,13-11,23.5T282,643q-22,18-29.5,30T245,698q0,24 17,38.5T306,751q28,0 50.5-14.5T392,697t13-59q0-26-11-51t-30.5-47T318,501t-56-26Z"/>
      <glyph unicode="&#x201e;" glyph-name="gid201" horiz-adv-x="492" d="M88-179L50-133q35,20 57,46t22,45q0,10-5,19.5T103,4Q83,23 77,36T71,64q0,24 17,38.5T132,117q25,0 45.5-14.5t32-40T221,4q0-30-10-58t-28-52t-42-43T88-179Zm225,0l-38,46q35,20 57,46t22,45q0,10-5,19.5T328,4q-20,19-26,32t-6,28q0,24 17,38.5T357,117q25,0 45.5-14.5t32-40T446,4q0-30-10-58t-28-52t-42-43t-53-30Z"/>
      <glyph unicode="&#x2022;" glyph-name="gid182" horiz-adv-x="346" d="M173,216q-37,0-68,18T55.5,283T37,351q0,38 18,69t49,49.5T173,488t69-18.5T291.5,420T310,351q0-37-18.5-68T242,234t-69-18Z"/>
      <glyph unicode="&#x2039;" glyph-name="gid208" horiz-adv-x="273" d="M170,50L11,257v2L169,471l63-45L113,255l1,11L233,95L170,50Z"/>
      <glyph unicode="&#x203a;" glyph-name="gid209" horiz-adv-x="275" d="M104,50L41,95L160,266l-1-11L40,426l63,45L262,264v-2L104,50Z"/>
    </font>
</defs>
</svg>
